<?xml version="1.0" encoding="UTF-8" standalone="no"?>
<svg
   xmlns:dc="http://purl.org/dc/elements/1.1/"
   xmlns:cc="http://creativecommons.org/ns#"
   xmlns:rdf="http://www.w3.org/1999/02/22-rdf-syntax-ns#"
   xmlns:svg="http://www.w3.org/2000/svg"
   xmlns="http://www.w3.org/2000/svg"
   xmlns:sodipodi="http://sodipodi.sourceforge.net/DTD/sodipodi-0.dtd"
   xmlns:inkscape="http://www.inkscape.org/namespaces/inkscape"
   viewBox="0 0 1024 300"
   version="1.1"
   id="svg1112"
   sodipodi:docname="Banner_noborder_noicons.svg"
   inkscape:version="0.92.3 (2405546, 2018-03-11)">
  <metadata
     id="metadata1116">
    <rdf:RDF>
      <cc:Work
         rdf:about="">
        <dc:format>image/svg+xml</dc:format>
        <dc:type
           rdf:resource="http://purl.org/dc/dcmitype/StillImage" />
        <dc:title>no hay tos podcast banner sin borde</dc:title>
      </cc:Work>
    </rdf:RDF>
  </metadata>
  <sodipodi:namedview
     pagecolor="#ffffff"
     bordercolor="#666666"
     borderopacity="1"
     objecttolerance="10"
     gridtolerance="10"
     guidetolerance="10"
     inkscape:pageopacity="0"
     inkscape:pageshadow="2"
     inkscape:window-width="1920"
     inkscape:window-height="1017"
     id="namedview1114"
     showgrid="false"
     inkscape:zoom="1.109375"
     inkscape:cx="531.15119"
     inkscape:cy="77.824565"
     inkscape:window-x="-8"
     inkscape:window-y="-8"
     inkscape:window-maximized="1"
     inkscape:current-layer="Layer_3" />
  <defs
     id="defs4">
    <style
       id="style2">.cls-1,.cls-2{fill:#f9f4f5;}.cls-1{stroke:#f9f4f5;stroke-width:0.25px;}.cls-1,.cls-2,.cls-3,.cls-4,.cls-5{stroke-miterlimit:10;}.cls-2,.cls-5{stroke:#000;}.cls-3{fill:#ce1126;}.cls-3,.cls-4{stroke:#fff;}.cls-5{fill:#f7f5f5;}.cls-6{fill:#407a40;}.cls-7{fill:#fff;}.cls-8{fill:#070707;}</style>
  </defs>
  <title
     id="title6">no hay tos podcast banner sin borde</title>
  <g
     id="Layer_4"
     data-name="Layer 4">
    <rect
       class="cls-1"
       x="358.39"
       y="216.93"
       width="308.89"
       height="6.13"
       id="rect8" />
    <path
       class="cls-2"
       d="M439.39,260.28v-10.8a7.4,7.4,0,0,0-.29-2.66,2.39,2.39,0,0,0-1.56-.91q-1.85-.53-1.85-1.85a1.58,1.58,0,0,1,.78-1.42,4.25,4.25,0,0,1,2.26-.49l2.44.06h1.23q3.41,0,4-.05t4.18-.36a21.33,21.33,0,0,1,2.18-.12,12.75,12.75,0,0,1,6,1.38,8,8,0,0,1,4.58,7.56,8.12,8.12,0,0,1-3.2,6.72,11.51,11.51,0,0,1-7.31,2.36q-1.09,0-2.67-.14l-1-.06q-.6,0-.6.68v.12l.14,3.37a2.92,2.92,0,0,0,.36,1.47,3.49,3.49,0,0,0,1.3,1q1.34.72,1.34,1.56,0,1.29-2,2a17.48,17.48,0,0,1-5.59.7q-7.6,0-7.6-2.61a1.28,1.28,0,0,1,.33-.94,7.11,7.11,0,0,1,1.54-.95,1.51,1.51,0,0,0,.86-1.09Q439.35,264.08,439.39,260.28Zm9.26-13.41v7q0,.8.35,1a3.9,3.9,0,0,0,3.78-.47,4.47,4.47,0,0,0,1.33-3.66,4.55,4.55,0,0,0-1.56-3.86,3.79,3.79,0,0,0-2.38-.76Q448.65,246.07,448.65,246.87Z"
       id="path10" />
    <path
       class="cls-2"
       d="M476.24,249.48a11.34,11.34,0,0,1,6.59,2,10.46,10.46,0,0,1,3.27,3.64,10.1,10.1,0,0,1,1.27,4.89,9.28,9.28,0,0,1-4.09,7.58,14.34,14.34,0,0,1-8.94,3,11.29,11.29,0,0,1-7.95-2.79,9.14,9.14,0,0,1-3-7.07,9.94,9.94,0,0,1,3.62-7.93A13.62,13.62,0,0,1,476.24,249.48Zm-1.64,4.75a1.77,1.77,0,0,0-1.45.67,2.73,2.73,0,0,0-.54,1.78,16.81,16.81,0,0,0,.46,3.36,25.41,25.41,0,0,0,1.1,3.77,2.19,2.19,0,0,0,2.07,1.68q1.83,0,1.83-2.32a19.3,19.3,0,0,0-.46-3.92,16.17,16.17,0,0,0-1.12-3.57A2.17,2.17,0,0,0,474.59,254.22Z"
       id="path12" />
    <path
       class="cls-2"
       d="M512.86,243.56v18.75a9.42,9.42,0,0,0,.13,2.05,1.78,1.78,0,0,0,.75.88,3.8,3.8,0,0,1,1,.9,1.68,1.68,0,0,1,.26.94q0,1.64-3.31,2.51a24,24,0,0,1-6,.76,1.27,1.27,0,0,1-.85-.2,1.65,1.65,0,0,1-.26-.93q-.1-1-.74-1a2.17,2.17,0,0,0-1.09.62,7.21,7.21,0,0,1-4.66,1.71,8.21,8.21,0,0,1-5.73-2.36,11.6,11.6,0,0,1-2.42-3.27,10.57,10.57,0,0,1-1.23-4.87,10.77,10.77,0,0,1,1.6-5.59,10,10,0,0,1,4-3.82,9.09,9.09,0,0,1,4.21-1.11,8.53,8.53,0,0,1,4.27,1.07,1.14,1.14,0,0,0,.49.16q.66,0,.66-1.77a1.68,1.68,0,0,0-.36-1.16,2.88,2.88,0,0,0-1.28-.69q-1.29-.41-1.29-1.44,0-1.5,3-2.34a33.46,33.46,0,0,1,7-1.46Q512.86,241.88,512.86,243.56Zm-11.15,10.33a2.36,2.36,0,0,0-2.12,1.42,10.23,10.23,0,0,0-1,5,7.27,7.27,0,0,0,1,4.21,2.26,2.26,0,0,0,2,1,2.05,2.05,0,0,0,1.94-1.55,14.91,14.91,0,0,0,.61-5q0-3.16-.72-4.21A1.93,1.93,0,0,0,501.71,253.89Z"
       id="path14" />
    <path
       class="cls-2"
       d="M527.92,249.5a11.51,11.51,0,0,1,6.45,1.83,5.1,5.1,0,0,1,2.65,4.33,3.71,3.71,0,0,1-1.23,2.9,4,4,0,0,1-2.77,1,2.93,2.93,0,0,1-2.57-1.23,9.89,9.89,0,0,1-.78-2,2.13,2.13,0,0,0-2.12-1.72,2.33,2.33,0,0,0-1.9,1,3.82,3.82,0,0,0-.77,2.42,6.26,6.26,0,0,0,1.77,4.38,4.74,4.74,0,0,0,3.62,1.54,7.18,7.18,0,0,0,1.72-.17,10.56,10.56,0,0,0,1.83-.71,1.4,1.4,0,0,1,.64-.14,1.57,1.57,0,0,1,1.23.66,2.37,2.37,0,0,1,.53,1.54,3.29,3.29,0,0,1-.76,1.94,7.12,7.12,0,0,1-2,1.78,11.79,11.79,0,0,1-6.31,1.64,10.94,10.94,0,0,1-7.21-2.46,9.82,9.82,0,0,1-3.82-7.95,9.68,9.68,0,0,1,3.55-7.68A12.2,12.2,0,0,1,527.92,249.5Z"
       id="path16" />
    <path
       class="cls-2"
       d="M550.08,249.48a10,10,0,0,1,6.06,1.81,5.34,5.34,0,0,1,1.84,2.21,9,9,0,0,1,.52,3.42l0,3.06a11.71,11.71,0,0,0,.45,4.13,1.41,1.41,0,0,0,.43.58,2.8,2.8,0,0,0,.86.23.75.75,0,0,1,.66.86,3.48,3.48,0,0,1-.79,2.05,6.55,6.55,0,0,1-2,1.79,6.28,6.28,0,0,1-3.22.9A4.23,4.23,0,0,1,551.4,269a1.15,1.15,0,0,0-.8-.53,2,2,0,0,0-1.09.51,7.71,7.71,0,0,1-4.66,1.5,7.51,7.51,0,0,1-4.35-1.15,5.63,5.63,0,0,1-2.36-4.54,5.08,5.08,0,0,1,1.73-3.78q2.69-2.59,8.05-2.61a2.93,2.93,0,0,0,1.5-.24q.31-.24.31-1.1a8,8,0,0,0-.45-3.15,1.53,1.53,0,0,0-1.48-1,1.76,1.76,0,0,0-1.1.37,6.92,6.92,0,0,0-1.2,1.36q-1.83,2.61-3.82,2.61a2.31,2.31,0,0,1-1.64-.6,2,2,0,0,1-.64-1.56,3.15,3.15,0,0,1,.79-2,7,7,0,0,1,2.15-1.73A16.35,16.35,0,0,1,550.08,249.48Zm-1.38,11.89a2.05,2.05,0,0,0-1.57.74,2.55,2.55,0,0,0-.67,1.77,2.51,2.51,0,0,0,.47,1.59,1.51,1.51,0,0,0,1.25.61q1.64,0,1.64-2.77a3.28,3.28,0,0,0-.24-1.52A1,1,0,0,0,548.71,261.37Z"
       id="path18" />
    <path
       class="cls-2"
       d="M570.42,249.5a20,20,0,0,1,3.35.45,4.74,4.74,0,0,0,.78.08,5,5,0,0,0,1.36-.37,2.28,2.28,0,0,1,.8-.18,2.61,2.61,0,0,1,1.91,1.21,9,9,0,0,1,1.27,2.12,5.21,5.21,0,0,1,.49,2,1.8,1.8,0,0,1-.57,1.37,2,2,0,0,1-1.44.54,2.39,2.39,0,0,1-1.28-.35,13.67,13.67,0,0,1-1.82-1.54,3.62,3.62,0,0,0-2.18-1.27,1.44,1.44,0,0,0-1.42,1.42q0,1,1.93,1.89a17.84,17.84,0,0,1,5.32,3.41,5.2,5.2,0,0,1,1.56,3.82,5.78,5.78,0,0,1-2.51,4.77,8.38,8.38,0,0,1-5.28,1.66,27.71,27.71,0,0,1-2.92-.27q-2-.23-2.24-.23a3.6,3.6,0,0,0-.62.06,7.16,7.16,0,0,1-.86.08,2.21,2.21,0,0,1-1.52-.49,7,7,0,0,1-1.56-2.39,7.19,7.19,0,0,1-.72-2.8q0-1.89,1.48-1.89a1.68,1.68,0,0,1,1.06.38,26.12,26.12,0,0,1,2,2,7.41,7.41,0,0,0,1.4,1.24,2.24,2.24,0,0,0,1.19.34,1.59,1.59,0,0,0,1.09-.36,1.21,1.21,0,0,0,.41-1q0-.92-1.58-1.68a14.82,14.82,0,0,1-4.78-3.35,6,6,0,0,1-1.47-4,6.29,6.29,0,0,1,1.5-4.21A7.24,7.24,0,0,1,570.42,249.5Z"
       id="path20" />
    <path
       class="cls-2"
       d="M594.58,254.88v6.94a3.19,3.19,0,0,0,.61,2,1.88,1.88,0,0,0,1.55.78,4.7,4.7,0,0,0,2.12-.74,1.19,1.19,0,0,1,.62-.18,1.13,1.13,0,0,1,.9.6,2.23,2.23,0,0,1,.41,1.29,3.26,3.26,0,0,1-1.4,2.44,10.53,10.53,0,0,1-7.07,2.49,7.42,7.42,0,0,1-5.28-1.86,6.39,6.39,0,0,1-2-4.9v-9.49a.53.53,0,0,0-.7-.7h-2.12q-.6,0-.76-.2a1.62,1.62,0,0,1-.16-.91v-.9a1,1,0,0,1,.47-.9l9.41-5.92a1.83,1.83,0,0,1,.86-.18h1.66a.82.82,0,0,1,.69.24,1.71,1.71,0,0,1,.17.93v2.77a1.15,1.15,0,0,0,.19.8,1.28,1.28,0,0,0,.83.18h3.8a1.27,1.27,0,0,1,1,.28,2.06,2.06,0,0,1,.23,1.18v1.21a2.37,2.37,0,0,1-.29,1.37,1.24,1.24,0,0,1-1,.38h-3.72a.8.8,0,0,0-1,1Z"
       id="path22" />
    <path
       class="cls-3"
       d="M570.19,121.25v15.95h-12.3v63.73H537.17V137.19H524.91V121.25Z"
       id="path24" />
    <path
       class="cls-3"
       d="M619.3,158.55v16a67.55,67.55,0,0,1-.89,12.92,18.14,18.14,0,0,1-3.79,7.68,17.11,17.11,0,0,1-7.46,5.27,29.81,29.81,0,0,1-10.46,1.7,37.34,37.34,0,0,1-11.17-1.45,15.22,15.22,0,0,1-7.11-4.38,17.31,17.31,0,0,1-3.62-7.09,53.29,53.29,0,0,1-1.08-12.48V160q0-9.1,2-14.22a16.36,16.36,0,0,1,7.09-8.22q5.12-3.1,13.09-3.1a29.9,29.9,0,0,1,11.49,2,18,18,0,0,1,11,11.79A41,41,0,0,1,619.3,158.55Zm-19.88-4.92q0-5-.54-6.32a2.23,2.23,0,0,0-2.31-1.3,2.33,2.33,0,0,0-2.36,1.3q-.59,1.3-.59,6.32v29.48q0,4.63.59,6a2.69,2.69,0,0,0,4.65.12,16.7,16.7,0,0,0,.57-5.51Z"
       id="path26" />
    <path
       class="cls-3"
       d="M666.45,156.49H648.83v-3.54q0-4.53-.52-5.73T645.73,146a2.94,2.94,0,0,0-2.51,1.11,5.47,5.47,0,0,0-.84,3.32,16.77,16.77,0,0,0,.42,4.4,7,7,0,0,0,2.51,3.08,54.54,54.54,0,0,0,8.59,4.87q8.66,4.23,11.37,8T668,181.63q0,8-2.07,12a13.74,13.74,0,0,1-6.91,6.25,28.28,28.28,0,0,1-11.69,2.19,32.2,32.2,0,0,1-13-2.36q-5.39-2.36-7.41-6.4t-2-12.2V178h17.62v4.13q0,5.27.66,6.84a2.58,2.58,0,0,0,2.63,1.58,3.57,3.57,0,0,0,3-1.06q.84-1.06.84-4.45,0-4.68-1.08-5.86t-11.57-7q-8.76-4.92-10.68-8.93a21.87,21.87,0,0,1-1.92-9.52q0-7.82,2.07-11.54a13.42,13.42,0,0,1,7-5.73,30.26,30.26,0,0,1,11.49-2,32.59,32.59,0,0,1,11,1.65,17,17,0,0,1,7,4.36,11.69,11.69,0,0,1,3,5,36.4,36.4,0,0,1,.52,7.23Z"
       id="path28" />
    <path
       class="cls-4"
       d="M406,121.25v79.68H385.31V167.46h-6.2v33.46H358.39V121.25h20.72v28.49h6.2V121.25Z"
       id="path30" />
    <path
       class="cls-4"
       d="M431.52,160.92H412.87v-4.38q0-7.58,1.75-11.69t7-7.26q5.27-3.15,13.68-3.15,10.09,0,15.21,3.57a13.91,13.91,0,0,1,6.15,8.76q1,5.19,1,21.38v32.78H438.36v-5.82a12.13,12.13,0,0,1-11.56,7,16.8,16.8,0,0,1-9.57-2.93q-4.35-2.93-4.35-12.82V181q0-7.33,2.31-10t11.47-6.2q9.79-3.84,10.48-5.17t.69-5.41q0-5.12-.76-6.67a2.62,2.62,0,0,0-2.53-1.55q-2,0-2.51,1.3t-.49,6.77Zm6.3,9q-4.77,3.5-5.54,5.86a23.23,23.23,0,0,0-.76,6.79q0,5.07.66,6.54a2.6,2.6,0,0,0,2.63,1.48,2.44,2.44,0,0,0,2.44-1.16q.57-1.16.57-6.08Z"
       id="path32" />
    <path
       class="cls-4"
       d="M506.16,135.62l-5.68,47.25q-1.35,11.22-2.26,15.3a16.39,16.39,0,0,1-3,6.74,12.22,12.22,0,0,1-5.88,3.91q-3.76,1.26-12,1.25H465.23V199.65a23,23,0,0,0,6-.47,2,2,0,0,0,1.33-2.09q0-.79-1.23-6.84l-10.89-54.63h18L485,179.71l3.19-44.09Z"
       id="path34" />
    <path
       class="cls-5"
       d="M404.65,30v79.68H386.49L375.71,73.44v36.22H358.39V30h17.32l11.61,35.88V30Z"
       id="path36" />
    <path
       class="cls-5"
       d="M457.35,67.29v16a67.46,67.46,0,0,1-.89,12.92,18.13,18.13,0,0,1-3.79,7.68,17.11,17.11,0,0,1-7.46,5.27,29.82,29.82,0,0,1-10.46,1.7,37.32,37.32,0,0,1-11.17-1.45,15.22,15.22,0,0,1-7.11-4.38,17.28,17.28,0,0,1-3.62-7.09,53.25,53.25,0,0,1-1.08-12.48V68.71q0-9.1,2-14.22a16.35,16.35,0,0,1,7.09-8.22q5.12-3.1,13.09-3.1a29.9,29.9,0,0,1,11.49,2,18,18,0,0,1,11,11.79A41,41,0,0,1,457.35,67.29Zm-19.88-4.92q0-5-.54-6.32a2.23,2.23,0,0,0-2.31-1.3,2.33,2.33,0,0,0-2.36,1.3q-.59,1.3-.59,6.32V91.84q0,4.63.59,6a2.69,2.69,0,0,0,4.65.12,16.7,16.7,0,0,0,.57-5.51Z"
       id="path38" />
    <rect
       class="cls-6"
       width="1024"
       height="300"
       id="rect40" />
  </g>
  <g
     id="Layer_3"
     data-name="Layer 3">
    <path
       class="cls-5"
       d="M405,30.44v79.39h-18.1L376.19,73.74v36.09H358.93V30.44h17.26l11.57,35.75V30.44Z"
       id="path631" />
    <path
       class="cls-5"
       d="M457.55,67.61V83.55a67.25,67.25,0,0,1-.88,12.87,18.07,18.07,0,0,1-3.78,7.65,17.05,17.05,0,0,1-7.43,5.25A29.71,29.71,0,0,1,435,111a37.19,37.19,0,0,1-11.13-1.45,15.16,15.16,0,0,1-7.09-4.36,17.23,17.23,0,0,1-3.6-7.06,53.09,53.09,0,0,1-1.08-12.43V69q0-9.07,2-14.17a16.29,16.29,0,0,1,7.06-8.19q5.1-3.09,13-3.09a29.79,29.79,0,0,1,11.45,2,17.95,17.95,0,0,1,10.94,11.75A40.84,40.84,0,0,1,457.55,67.61Zm-19.81-4.9q0-5-.54-6.3a2.23,2.23,0,0,0-2.3-1.3,2.32,2.32,0,0,0-2.35,1.3q-.59,1.3-.59,6.3V92.08q0,4.61.59,6a2.68,2.68,0,0,0,4.63.12,16.63,16.63,0,0,0,.56-5.49Z"
       id="path633" />
    <path
       class="cls-4"
       d="M406.4,121.38v79.39H385.75V167.43h-6.18v33.35H358.93V121.38h20.65v28.39h6.18V121.38Z"
       id="path635" />
    <path
       class="cls-4"
       d="M431.8,160.91H413.22v-4.37q0-7.55,1.74-11.65t7-7.23q5.25-3.14,13.63-3.14,10.05,0,15.15,3.56a13.86,13.86,0,0,1,6.13,8.73q1,5.17,1,21.31v32.66H438.62V195a12.09,12.09,0,0,1-11.52,7,16.74,16.74,0,0,1-9.54-2.92q-4.34-2.92-4.34-12.77v-5.34q0-7.31,2.31-10t11.43-6.18q9.76-3.83,10.45-5.15t.69-5.39q0-5.1-.76-6.64a2.61,2.61,0,0,0-2.53-1.54q-2,0-2.5,1.3t-.49,6.74Zm6.28,8.92q-4.76,3.48-5.52,5.84a23.14,23.14,0,0,0-.76,6.77q0,5.05.66,6.52a2.59,2.59,0,0,0,2.62,1.47,2.43,2.43,0,0,0,2.43-1.15q.56-1.15.56-6.06Z"
       id="path637" />
    <path
       class="cls-4"
       d="M506.18,135.7l-5.66,47.08Q499.18,194,498.27,198a16.32,16.32,0,0,1-3,6.72,12.18,12.18,0,0,1-5.86,3.9q-3.75,1.25-12,1.25h-12V199.5a22.87,22.87,0,0,0,5.94-.47,2,2,0,0,0,1.33-2.08q0-.78-1.23-6.82L460.59,135.7h18l6.51,43.94,3.18-43.94Z"
       id="path639" />
    <path
       class="cls-3"
       d="M570,121.38v15.89H557.72v63.5H537.08v-63.5H524.87V121.38Z"
       id="path641" />
    <path
       class="cls-3"
       d="M618.92,158.55v15.94a67.3,67.3,0,0,1-.88,12.87,18.07,18.07,0,0,1-3.78,7.65,17.05,17.05,0,0,1-7.43,5.25A29.71,29.71,0,0,1,596.42,202a37.19,37.19,0,0,1-11.13-1.45,15.16,15.16,0,0,1-7.09-4.36,17.23,17.23,0,0,1-3.6-7.06,53.06,53.06,0,0,1-1.08-12.43V160q0-9.07,2-14.17a16.29,16.29,0,0,1,7.06-8.19q5.1-3.09,13-3.09a29.78,29.78,0,0,1,11.45,2A18,18,0,0,1,618,148.26,40.88,40.88,0,0,1,618.92,158.55Zm-19.81-4.9q0-5-.54-6.3a2.23,2.23,0,0,0-2.3-1.3,2.32,2.32,0,0,0-2.35,1.3q-.59,1.3-.59,6.3V183q0,4.61.59,6a2.68,2.68,0,0,0,4.63.12,16.61,16.61,0,0,0,.56-5.49Z"
       id="path643" />
    <path
       class="cls-3"
       d="M665.9,156.49H648.35V153q0-4.51-.51-5.71t-2.57-1.2a2.94,2.94,0,0,0-2.5,1.1,5.45,5.45,0,0,0-.83,3.31,16.7,16.7,0,0,0,.42,4.39,6.94,6.94,0,0,0,2.5,3.06,54.3,54.3,0,0,0,8.56,4.86q8.63,4.22,11.33,7.94t2.7,10.84q0,7.95-2.06,12a13.69,13.69,0,0,1-6.89,6.23A28.18,28.18,0,0,1,646.83,202a32.07,32.07,0,0,1-12.92-2.35q-5.37-2.35-7.38-6.37t-2-12.16v-3.14h17.56V182q0,5.25.66,6.82a2.57,2.57,0,0,0,2.62,1.57,3.56,3.56,0,0,0,2.94-1.05q.83-1.05.83-4.44,0-4.66-1.08-5.83t-11.52-7q-8.73-4.9-10.64-8.9a21.8,21.8,0,0,1-1.91-9.49q0-7.8,2.06-11.5a13.38,13.38,0,0,1,7-5.71,30.17,30.17,0,0,1,11.45-2,32.47,32.47,0,0,1,11,1.64,16.91,16.91,0,0,1,7,4.34,11.65,11.65,0,0,1,2.94,5,36.25,36.25,0,0,1,.52,7.21Z"
       id="path645" />
    <path
       class="cls-2"
       d="M439.64,259.92V249.15a7.37,7.37,0,0,0-.29-2.65,2.38,2.38,0,0,0-1.56-.91q-1.84-.53-1.84-1.84a1.57,1.57,0,0,1,.78-1.41,4.23,4.23,0,0,1,2.25-.49l2.44.06h1.23q3.4,0,4-.05t4.17-.36a21.45,21.45,0,0,1,2.17-.12,12.7,12.7,0,0,1,6,1.37,7.92,7.92,0,0,1,4.56,7.53,8.1,8.1,0,0,1-3.19,6.69,11.47,11.47,0,0,1-7.29,2.35q-1.08,0-2.66-.14l-1-.06q-.59,0-.59.67v.12l.14,3.36a2.92,2.92,0,0,0,.36,1.46,3.49,3.49,0,0,0,1.3,1q1.33.72,1.33,1.55,0,1.29-2,2a17.43,17.43,0,0,1-5.57.7q-7.57,0-7.57-2.6a1.28,1.28,0,0,1,.33-.94,7.09,7.09,0,0,1,1.54-.94,1.51,1.51,0,0,0,.86-1.08Q439.6,263.71,439.64,259.92Zm9.23-13.37v7q0,.8.35,1a3.43,3.43,0,0,0,1.49.29A3.46,3.46,0,0,0,453,254a4.45,4.45,0,0,0,1.33-3.64,4.54,4.54,0,0,0-1.56-3.85,3.78,3.78,0,0,0-2.37-.76Q448.87,245.76,448.88,246.55Z"
       id="path647" />
    <path
       class="cls-2"
       d="M476.36,249.15a11.31,11.31,0,0,1,6.57,1.94,10.42,10.42,0,0,1,3.25,3.62,10.06,10.06,0,0,1,1.27,4.87,9.24,9.24,0,0,1-4.07,7.55,14.28,14.28,0,0,1-8.9,3,11.24,11.24,0,0,1-7.92-2.78,9.1,9.1,0,0,1-2.95-7,9.91,9.91,0,0,1,3.6-7.9A13.56,13.56,0,0,1,476.36,249.15Zm-1.64,4.73a1.77,1.77,0,0,0-1.44.67,2.72,2.72,0,0,0-.54,1.77,16.77,16.77,0,0,0,.46,3.35,25.38,25.38,0,0,0,1.1,3.76,2.18,2.18,0,0,0,2.07,1.68q1.82,0,1.82-2.31a19.25,19.25,0,0,0-.46-3.91,16.1,16.1,0,0,0-1.12-3.56A2.17,2.17,0,0,0,474.73,253.88Z"
       id="path649" />
    <path
       class="cls-2"
       d="M512.86,243.26v18.69a9.31,9.31,0,0,0,.13,2,1.77,1.77,0,0,0,.75.88,3.82,3.82,0,0,1,1,.9,1.67,1.67,0,0,1,.26.94q0,1.64-3.29,2.5a24,24,0,0,1-5.94.76,1.27,1.27,0,0,1-.85-.19,1.64,1.64,0,0,1-.26-.93q-.1-1-.74-1a2.17,2.17,0,0,0-1.08.61,7.18,7.18,0,0,1-4.65,1.7,8.19,8.19,0,0,1-5.71-2.35,11.57,11.57,0,0,1-2.42-3.25,10.54,10.54,0,0,1-1.23-4.85,10.73,10.73,0,0,1,1.6-5.57,10,10,0,0,1,4-3.81,9,9,0,0,1,4.2-1.11,8.51,8.51,0,0,1,4.26,1.06,1.13,1.13,0,0,0,.49.16q.65,0,.66-1.76a1.68,1.68,0,0,0-.36-1.16,2.88,2.88,0,0,0-1.28-.69q-1.29-.41-1.29-1.43,0-1.49,3-2.33a33.34,33.34,0,0,1,7-1.45Q512.86,241.58,512.86,243.26Zm-11.11,10.3a2.35,2.35,0,0,0-2.11,1.41,10.2,10.2,0,0,0-1,5,7.25,7.25,0,0,0,1,4.2,2.25,2.25,0,0,0,1.95,1,2,2,0,0,0,1.93-1.55,14.85,14.85,0,0,0,.6-5q0-3.15-.72-4.2A1.92,1.92,0,0,0,501.75,253.56Z"
       id="path651" />
    <path
       class="cls-2"
       d="M527.86,249.17a11.47,11.47,0,0,1,6.43,1.82,5.08,5.08,0,0,1,2.64,4.32,3.7,3.7,0,0,1-1.23,2.89,4,4,0,0,1-2.76,1,2.92,2.92,0,0,1-2.56-1.23,9.93,9.93,0,0,1-.78-2,2.12,2.12,0,0,0-2.11-1.72,2.32,2.32,0,0,0-1.89,1,3.8,3.8,0,0,0-.77,2.42,6.24,6.24,0,0,0,1.76,4.36,4.72,4.72,0,0,0,3.6,1.54,7.25,7.25,0,0,0,1.72-.17,10.51,10.51,0,0,0,1.82-.71,1.41,1.41,0,0,1,.63-.14,1.56,1.56,0,0,1,1.23.65,2.37,2.37,0,0,1,.53,1.54,3.28,3.28,0,0,1-.76,1.93,7.07,7.07,0,0,1-2,1.77,11.75,11.75,0,0,1-6.28,1.64,10.9,10.9,0,0,1-7.18-2.46,9.79,9.79,0,0,1-3.81-7.92,9.64,9.64,0,0,1,3.54-7.66A12.16,12.16,0,0,1,527.86,249.17Z"
       id="path653" />
    <path
       class="cls-2"
       d="M549.95,249.15a10,10,0,0,1,6,1.8,5.32,5.32,0,0,1,1.83,2.2,9,9,0,0,1,.52,3.41l0,3a11.66,11.66,0,0,0,.45,4.11,1.39,1.39,0,0,0,.43.57,2.79,2.79,0,0,0,.86.23.75.75,0,0,1,.65.86,3.47,3.47,0,0,1-.79,2,6.54,6.54,0,0,1-2,1.78,6.27,6.27,0,0,1-3.21.9,4.22,4.22,0,0,1-3.4-1.47,1.15,1.15,0,0,0-.8-.53,2,2,0,0,0-1.08.51,7.69,7.69,0,0,1-4.65,1.49,7.48,7.48,0,0,1-4.34-1.15,5.61,5.61,0,0,1-2.35-4.52,5.06,5.06,0,0,1,1.72-3.77q2.68-2.58,8-2.6a2.92,2.92,0,0,0,1.49-.24q.31-.24.31-1.1a8,8,0,0,0-.45-3.14,1.52,1.52,0,0,0-1.47-1,1.75,1.75,0,0,0-1.09.37,6.82,6.82,0,0,0-1.2,1.35q-1.82,2.6-3.81,2.6a2.3,2.3,0,0,1-1.64-.59,2,2,0,0,1-.63-1.56,3.14,3.14,0,0,1,.79-2,7,7,0,0,1,2.14-1.72A16.3,16.3,0,0,1,549.95,249.15ZM548.58,261a2,2,0,0,0-1.57.74,2.53,2.53,0,0,0-.67,1.76,2.5,2.5,0,0,0,.47,1.59,1.5,1.5,0,0,0,1.25.6q1.64,0,1.64-2.76a3.28,3.28,0,0,0-.24-1.51A1,1,0,0,0,548.58,261Z"
       id="path655" />
    <path
       class="cls-2"
       d="M570.21,249.17a20,20,0,0,1,3.34.45,4.7,4.7,0,0,0,.78.08,5,5,0,0,0,1.35-.37,2.26,2.26,0,0,1,.8-.18,2.6,2.6,0,0,1,1.9,1.21,9,9,0,0,1,1.27,2.11,5.19,5.19,0,0,1,.49,2,1.8,1.8,0,0,1-.57,1.36,2,2,0,0,1-1.43.54,2.38,2.38,0,0,1-1.28-.35,13.62,13.62,0,0,1-1.81-1.54,3.61,3.61,0,0,0-2.17-1.27,1.43,1.43,0,0,0-1.41,1.41q0,1,1.92,1.88a17.78,17.78,0,0,1,5.3,3.4,5.18,5.18,0,0,1,1.56,3.81,5.76,5.76,0,0,1-2.5,4.75,8.35,8.35,0,0,1-5.26,1.66,27.71,27.71,0,0,1-2.91-.27q-2-.22-2.23-.22a3.58,3.58,0,0,0-.61.06,7.32,7.32,0,0,1-.86.08,2.2,2.2,0,0,1-1.51-.49,7,7,0,0,1-1.56-2.38,7.17,7.17,0,0,1-.72-2.79q0-1.88,1.47-1.88a1.67,1.67,0,0,1,1.05.38,26,26,0,0,1,2,2,7.37,7.37,0,0,0,1.39,1.24,2.24,2.24,0,0,0,1.19.34,1.59,1.59,0,0,0,1.08-.36,1.2,1.2,0,0,0,.41-1q0-.92-1.58-1.68a14.8,14.8,0,0,1-4.76-3.34,6,6,0,0,1-1.46-4,6.27,6.27,0,0,1,1.49-4.2A7.21,7.21,0,0,1,570.21,249.17Z"
       id="path657" />
    <path
       class="cls-2"
       d="M594.28,254.54v6.92a3.17,3.17,0,0,0,.6,2,1.87,1.87,0,0,0,1.54.78,4.68,4.68,0,0,0,2.11-.74,1.18,1.18,0,0,1,.61-.18,1.13,1.13,0,0,1,.9.59,2.23,2.23,0,0,1,.41,1.29,3.25,3.25,0,0,1-1.39,2.44,10.49,10.49,0,0,1-7,2.48,7.4,7.4,0,0,1-5.26-1.85,6.36,6.36,0,0,1-2-4.88v-9.46a.53.53,0,0,0-.7-.7H582c-.4,0-.65-.06-.76-.19a1.62,1.62,0,0,1-.16-.91v-.9a1,1,0,0,1,.47-.9l9.37-5.89a1.82,1.82,0,0,1,.86-.18h1.66a.81.81,0,0,1,.69.24,1.71,1.71,0,0,1,.17.93v2.76a1.14,1.14,0,0,0,.2.8,1.28,1.28,0,0,0,.83.18h3.79a1.27,1.27,0,0,1,1,.28,2,2,0,0,1,.23,1.18v1.21a2.35,2.35,0,0,1-.29,1.36,1.24,1.24,0,0,1-1,.38h-3.7a.8.8,0,0,0-1,1Z"
       id="path659" />
    <rect
       class="cls-2"
       x="358.94"
       y="216.73"
       width="307.8"
       height="6.11"
       id="rect661" />
  </g>
</svg>
