<?xml version="1.0" encoding="UTF-8" standalone="no"?>
<svg
   xmlns:dc="http://purl.org/dc/elements/1.1/"
   xmlns:cc="http://creativecommons.org/ns#"
   xmlns:rdf="http://www.w3.org/1999/02/22-rdf-syntax-ns#"
   xmlns:svg="http://www.w3.org/2000/svg"
   xmlns="http://www.w3.org/2000/svg"
   xmlns:sodipodi="http://sodipodi.sourceforge.net/DTD/sodipodi-0.dtd"
   xmlns:inkscape="http://www.inkscape.org/namespaces/inkscape"
   id="Layer_1"
   data-name="Layer 1"
   viewBox="0 0 210.17 359.72"
   version="1.1"
   sodipodi:docname="cactuslogowhite.svg"
   inkscape:version="0.92.3 (2405546, 2018-03-11)">
  <metadata
     id="metadata45">
    <rdf:RDF>
      <cc:Work
         rdf:about="">
        <dc:format>image/svg+xml</dc:format>
        <dc:type
           rdf:resource="http://purl.org/dc/dcmitype/StillImage" />
        <dc:title>NUEVO CACTUS</dc:title>
      </cc:Work>
    </rdf:RDF>
  </metadata>
  <sodipodi:namedview
     pagecolor="#ffffff"
     bordercolor="#666666"
     borderopacity="1"
     objecttolerance="10"
     gridtolerance="10"
     guidetolerance="10"
     inkscape:pageopacity="0"
     inkscape:pageshadow="2"
     inkscape:window-width="2560"
     inkscape:window-height="1017"
     id="namedview43"
     showgrid="false"
     showborder="false"
     inkscape:zoom="1.28"
     inkscape:cx="-44.607571"
     inkscape:cy="212.41356"
     inkscape:window-x="-8"
     inkscape:window-y="-8"
     inkscape:window-maximized="1"
     inkscape:current-layer="Layer_1" />
  <defs
     id="defs10">
    <style
       id="style2">.cls-1{fill:#4ca340;}.cls-2{clip-path:url(#clip-path);}.cls-3{clip-path:url(#clip-path-2);}.cls-4{clip-path:url(#clip-path-3);}</style>
    <clipPath
       id="clip-path"
       transform="translate(-200.91 -216.14)">
      <path
         id="_Clipping_Path_"
         data-name="&lt;Clipping Path&gt;"
         class="cls-1"
         d="M283.83,519.2v28.27s18,9.65,44.33,0V519.2S308.87,526.85,283.83,519.2Z" />
    </clipPath>
    <clipPath
       id="clip-path-2"
       transform="translate(-200.91 -216.14)">
      <path
         id="_Clipping_Path_2"
         data-name="&lt;Clipping Path&gt;"
         class="cls-1"
         d="M306.11,534.83s-92.31-2.63-93.38,10.31c0,0-9.26,15,93.38,13.3,0,0,93.3-2.38,93.38-12C399.49,546.45,401.82,534.83,306.11,534.83Z" />
    </clipPath>
    <clipPath
       id="clip-path-3"
       transform="translate(-200.91 -216.14)">
      <path
         id="_Clipping_Path_3"
         data-name="&lt;Clipping Path&gt;"
         class="cls-1"
         d="M246.38,422.52s34.4,4.43,119.24,0v52.33s-14.38,25.28-57.54,25.72c0,0-52.46-.89-61.7-28.38Z" />
    </clipPath>
  </defs>
  <title
     id="title12">NUEVO CACTUS</title>
  <g
     class="cls-2"
     clip-path="url(#clip-path)"
     id="g19">
    <polygon
       class="cls-1"
       points="105.09 308.64 104.82 318.18 124.35 318.83 124.69 303.9 105.09 308.64"
       id="polygon17" />
  </g>
  <g
     class="cls-3"
     clip-path="url(#clip-path-2)"
     id="g24">
    <path
       class="cls-1"
       d="M303.76,534.32s29.43,6.07,29.43,21.29c0,0,45.05,1.51,66.3-7.81h0s-2.6-17.27-95.73-13.48h0"
       transform="translate(-200.91 -216.14)"
       id="path22" />
  </g>
  <g
     class="cls-4"
     clip-path="url(#clip-path-3)"
     id="g29">
    <path
       class="cls-1"
       d="M347.73,426.08l.76,50.75s-20.3,12.94-40.41,12.94v10.81s38.43,1.61,57.54-25.72h0V422.52l-17.54.82Z"
       transform="translate(-200.91 -216.14)"
       id="path27" />
  </g>
  <g
     id="g4565"
     style="fill:#f7f0f5;fill-opacity:1">
    <path
       style="fill:#f7f0f5;fill-opacity:1"
       id="path14"
       transform="translate(-200.91 -216.14)"
       d="M234.36,416.31l1.53,65.58s10.7,30.91,67.26,30.91H310s64.21,2.81,64.21-30.91V417.72h15.29s22.17,8.9,0,21.55l-6.88.47v42.16s2.29,38.88-74.91,37c-4.21.19-65.42,5.64-82.55-36.07V439.73S213,437.86,213,426.61c0,0-3.06-10.3,9.17-10.3Z"
       class="cls-1" />
    <path
       style="fill:#f7f0f5;fill-opacity:1"
       transform="translate(-200.91 -216.14)"
       d="M283.83,519.2v28.27s18,9.65,44.33,0V519.2S308.87,526.85,283.83,519.2Z"
       class="cls-1"
       data-name="&lt;Clipping Path&gt;"
       id="_Clipping_Path_4" />
    <path
       style="fill:#f7f0f5;fill-opacity:1"
       transform="translate(-200.91 -216.14)"
       d="M306.11,534.83s-92.31-2.63-93.38,10.31c0,0-9.26,15,93.38,13.3,0,0,93.3-2.38,93.38-12C399.49,546.45,401.82,534.83,306.11,534.83Z"
       class="cls-1"
       data-name="&lt;Clipping Path&gt;"
       id="_Clipping_Path_5" />
    <path
       style="fill:#f7f0f5;fill-opacity:1"
       transform="translate(-200.91 -216.14)"
       d="M246.38,422.52s34.4,4.43,119.24,0v52.33s-14.38,25.28-57.54,25.72c0,0-52.46-.89-61.7-28.38Z"
       class="cls-1"
       data-name="&lt;Clipping Path&gt;"
       id="_Clipping_Path_6" />
    <path
       style="fill:#f7f0f5;fill-opacity:1"
       transform="translate(-200.91 -216.14)"
       d="M212.72,546.6l-.21,17.63s2.86,11.34,93.36,11.09c0,0,71.4,3.84,93.39-8.87l.23-19s-23,10.7-93.4,9.53C306.09,557,219.3,556.32,212.72,546.6Z"
       class="cls-1"
       data-name="&lt;Clipping Path&gt;"
       id="_Clipping_Path_7" />
    <path
       style="fill:#f7f0f5;fill-opacity:1"
       id="path32"
       transform="translate(-200.91 -216.14)"
       d="M411,372.83v-63.9c-.41-12.78-17-14.61-17-14.61-19.05-1.1-21.08,16.8-21.08,16.8v55.5a6.7,6.7,0,0,1-6.49,6.21H353V327.64H320.88c-1.62-4.54,0-7.16,0-7.16H353V305.19H320.88c-1.62-4.54,0-7.16,0-7.16H353V283.39H320.88c-1.62-4.54,0-7.16,0-7.16H353V253.06c-2.19-17.91-13.74-27.2-24.95-32v22.73c-5.79,1.53-8.84,0-8.84,0V218a71.21,71.21,0,0,0-9.91-1.86V245c-5.79,1.55-8.84,0-8.84,0V216.41a77,77,0,0,0-9.91,2.14V245c-5.79,1.53-8.84,0-8.84,0V221.83c-20.73,9.69-23.84,27.3-24.29,32.6l-.08,7.16v14.65H290c1.62,4.54,0,7.16,0,7.16H257.36V298H290c1.62,4.54,0,7.16,0,7.16H257.36v15.29H290c1.62,4.54,0,7.16,0,7.16H257.36v22.84H245.47s-6.63-2.51-6.63-8.34V278.74S235.13,262.3,219.22,262c0,0-18.3,1.06-18.3,17v75.6s.8,34.48,32.63,34.48h18.3a9.13,9.13,0,0,1,5.52,4.55v84L353,479.09l-.41-59.52c.41-12.41,6.08-12.41,6.08-12.41h26.35C413.85,395.84,411,372.83,411,372.83Z"
       class="cls-1" />
    <path
       style="fill:#f7f0f5;fill-opacity:1"
       id="path34"
       transform="translate(-200.91 -216.14)"
       d="M305.93,217l-.24,0,.62,0Z"
       class="cls-1" />
    <path
       style="fill:#f7f0f5;fill-opacity:1"
       id="path36"
       transform="translate(-200.91 -216.14)"
       d="M306,519.2"
       class="cls-1" />
    <polygon
       style="fill:#f7f0f5;fill-opacity:1"
       id="polygon38"
       points="82.92 302.14 82.92 304.35 82.92 312.62 127.25 312.62 127.25 302.14 82.92 302.14"
       class="cls-1" />
    <path
       style="fill:#f7f0f5;fill-opacity:1"
       id="path40"
       transform="translate(-200.91 -216.14)"
       d="M306,306.81"
       class="cls-1" />
  </g>
</svg>
