<?xml version="1.0" encoding="UTF-8" standalone="no"?>
<svg
   xmlns:dc="http://purl.org/dc/elements/1.1/"
   xmlns:cc="http://creativecommons.org/ns#"
   xmlns:rdf="http://www.w3.org/1999/02/22-rdf-syntax-ns#"
   xmlns:svg="http://www.w3.org/2000/svg"
   xmlns="http://www.w3.org/2000/svg"
   xmlns:sodipodi="http://sodipodi.sourceforge.net/DTD/sodipodi-0.dtd"
   xmlns:inkscape="http://www.inkscape.org/namespaces/inkscape"
   id="Слой_1"
   style="enable-background:new -379 381 40 40;"
   version="1.1"
   viewBox="-379 381 40 40"
   xml:space="preserve"
   sodipodi:docname="episodios.svg"
   inkscape:version="0.92.3 (2405546, 2018-03-11)"><metadata
     id="metadata13"><rdf:RDF><cc:Work
         rdf:about=""><dc:format>image/svg+xml</dc:format><dc:type
           rdf:resource="http://purl.org/dc/dcmitype/StillImage" /><dc:title></dc:title></cc:Work></rdf:RDF></metadata><defs
     id="defs11" /><sodipodi:namedview
     pagecolor="#ffffff"
     bordercolor="#666666"
     borderopacity="1"
     objecttolerance="10"
     gridtolerance="10"
     guidetolerance="10"
     inkscape:pageopacity="0"
     inkscape:pageshadow="2"
     inkscape:window-width="1920"
     inkscape:window-height="1017"
     id="namedview9"
     showgrid="false"
     inkscape:zoom="5.9"
     inkscape:cx="20"
     inkscape:cy="20"
     inkscape:window-x="-8"
     inkscape:window-y="-8"
     inkscape:window-maximized="1"
     inkscape:current-layer="Слой_1" /><g
     id="g6"
     style="fill:#ce3b4d;fill-opacity:1"><path
       d="M-359.1,410.2c4.7,0,8.5-3.8,8.5-8.5v-12.2c0-4.7-3.8-8.5-8.5-8.5c-4.7,0-8.5,3.8-8.5,8.5v12.2   C-367.6,406.4-363.8,410.2-359.1,410.2z M-365.6,400.6h4c0.6,0,1-0.4,1-1c0-0.6-0.4-1-1-1h-4v-2h4c0.6,0,1-0.4,1-1c0-0.6-0.4-1-1-1   h-4v-2h4c0.6,0,1-0.4,1-1c0-0.6-0.4-1-1-1h-4v-1.1c0-3.6,2.9-6.5,6.5-6.5c3.6,0,6.5,2.9,6.5,6.5v1.1h-4c-0.6,0-1,0.4-1,1   c0,0.5,0.5,1,1,1h4v2h-4c-0.6,0-1,0.4-1,1c0,0.5,0.5,1,1,1h4v2h-4c-0.6,0-1,0.4-1,1c0,0.5,0.5,1,1,1h4v1.1c0,3.6-2.9,6.5-6.5,6.5   c-3.6,0-6.5-2.9-6.5-6.5V400.6z"
       id="path2"
       style="fill:#ce3b4d;fill-opacity:1" /><path
       d="M-346.6,401.6c0-0.5-0.5-1-1-1s-1,0.5-1,1c0,5.8-4.7,10.5-10.5,10.5c-5.8,0-10.5-4.7-10.5-10.5c0-0.5-0.5-1-1-1s-1,0.5-1,1   c0,6.6,5.1,12,11.5,12.5v4.9h-6.5c-0.5,0-1,0.4-1,1s0.5,1,1,1h15c0.5,0,1-0.4,1-1s-0.5-1-1-1h-6.5v-4.9   C-351.7,413.6-346.6,408.2-346.6,401.6z"
       id="path4"
       style="fill:#ce3b4d;fill-opacity:1" /></g></svg>