<?xml version="1.0" encoding="UTF-8" standalone="no"?>
<svg
   xmlns:dc="http://purl.org/dc/elements/1.1/"
   xmlns:cc="http://creativecommons.org/ns#"
   xmlns:rdf="http://www.w3.org/1999/02/22-rdf-syntax-ns#"
   xmlns:svg="http://www.w3.org/2000/svg"
   xmlns="http://www.w3.org/2000/svg"
   xmlns:sodipodi="http://sodipodi.sourceforge.net/DTD/sodipodi-0.dtd"
   xmlns:inkscape="http://www.inkscape.org/namespaces/inkscape"
   aria-labelledby="simpleicons-medium-icon"
   role="img"
   viewBox="0 0 24 24"
   version="1.1"
   id="svg5"
   sodipodi:docname="medium.svg"
   inkscape:version="0.92.3 (2405546, 2018-03-11)">
  <metadata
     id="metadata11">
    <rdf:RDF>
      <cc:Work
         rdf:about="">
        <dc:format>image/svg+xml</dc:format>
        <dc:type
           rdf:resource="http://purl.org/dc/dcmitype/StillImage" />
      </cc:Work>
    </rdf:RDF>
  </metadata>
  <defs
     id="defs9" />
  <sodipodi:namedview
     pagecolor="#ffffff"
     bordercolor="#666666"
     borderopacity="1"
     objecttolerance="10"
     gridtolerance="10"
     guidetolerance="10"
     inkscape:pageopacity="0"
     inkscape:pageshadow="2"
     inkscape:window-width="1920"
     inkscape:window-height="1017"
     id="namedview7"
     showgrid="false"
     inkscape:zoom="9.8333333"
     inkscape:cx="12"
     inkscape:cy="12"
     inkscape:window-x="-8"
     inkscape:window-y="-8"
     inkscape:window-maximized="1"
     inkscape:current-layer="svg5" />
  <title
     id="simpleicons-medium-icon">Medium icon</title>
  <path
     d="M2.846 6.36c.03-.295-.083-.586-.303-.784l-2.24-2.7v-.403H7.26l5.378 11.795 4.728-11.795H24v.403l-1.917 1.837c-.165.126-.247.333-.213.538v13.5c-.034.204.048.41.213.537l1.87 1.837v.403h-9.41v-.403l1.937-1.882c.19-.19.19-.246.19-.538V7.794l-5.39 13.688h-.727L4.278 7.794v9.174c-.052.386.076.774.347 1.053l2.52 3.06v.402H0v-.403l2.52-3.06c.27-.278.39-.67.326-1.052V6.36z"
     id="path3"
     style="fill:#ce3b4d;fill-opacity:1" />
</svg>
