<?xml version="1.0" encoding="UTF-8" standalone="no"?>
<svg
   xmlns:dc="http://purl.org/dc/elements/1.1/"
   xmlns:cc="http://creativecommons.org/ns#"
   xmlns:rdf="http://www.w3.org/1999/02/22-rdf-syntax-ns#"
   xmlns:svg="http://www.w3.org/2000/svg"
   xmlns="http://www.w3.org/2000/svg"
   xmlns:sodipodi="http://sodipodi.sourceforge.net/DTD/sodipodi-0.dtd"
   xmlns:inkscape="http://www.inkscape.org/namespaces/inkscape"
   version="1.0"
   width="172.41788pt"
   height="217.89943pt"
   viewBox="0 0 172.41788 217.89943"
   preserveAspectRatio="xMidYMid meet"
   id="svg12"
   sodipodi:docname="nohaytos_logo.svg"
   inkscape:version="0.92.3 (2405546, 2018-03-11)">
  <metadata
     id="metadata18">
    <rdf:RDF>
      <cc:Work
         rdf:about="">
        <dc:format>image/svg+xml</dc:format>
        <dc:type
           rdf:resource="http://purl.org/dc/dcmitype/StillImage" />
        <dc:title></dc:title>
      </cc:Work>
    </rdf:RDF>
  </metadata>
  <defs
     id="defs16" />
  <sodipodi:namedview
     pagecolor="#ffffff"
     bordercolor="#666666"
     borderopacity="1"
     objecttolerance="10"
     gridtolerance="10"
     guidetolerance="10"
     inkscape:pageopacity="0"
     inkscape:pageshadow="2"
     inkscape:window-width="1920"
     inkscape:window-height="1017"
     id="namedview14"
     showgrid="false"
     showborder="false"
     fit-margin-top="0"
     fit-margin-left="0"
     fit-margin-right="0"
     fit-margin-bottom="0"
     inkscape:zoom="1.3828125"
     inkscape:cx="211.09121"
     inkscape:cy="139.04968"
     inkscape:window-x="1912"
     inkscape:window-y="-8"
     inkscape:window-maximized="1"
     inkscape:current-layer="svg12" />
  <g
     transform="matrix(0.1,0,0,-0.1,-244.91525,619.89943)"
     id="g10"
     style="fill:#ce3b4d;stroke:none;fill-opacity:1">
    <path
       d="m 3150,6178 c -84,-56 -139,-202 -127,-337 9,-101 11,-104 69,-98 130,16 478,150 478,185 0,22 -70,124 -115,167 -69,66 -134,98 -210,103 -50,3 -66,0 -95,-20 z"
       id="path2"
       inkscape:connector-curvature="0"
       style="fill:#ce3b4d;fill-opacity:1" />
    <path
       d="m 3974,6002 c -397,-191 -727,-310 -1134,-411 -135,-33 -275,-66 -312,-72 -38,-7 -68,-17 -68,-23 1,-20 25,-55 74,-106 46,-48 66,-60 66,-40 0,15 55,40 87,40 15,-1 39,-7 53,-15 43,-24 67,-19 94,23 50,79 100,97 182,66 l 47,-18 21,28 c 56,74 83,96 120,96 20,0 52,-7 72,-15 45,-18 77,-7 94,34 25,61 88,88 152,65 65,-23 85,-19 112,24 48,76 85,89 180,61 47,-13 49,-13 65,10 57,84 111,114 165,91 53,-21 82,-23 99,-5 24,24 40,91 41,175 1,59 -2,75 -14,76 -8,2 -96,-37 -196,-84 z"
       id="path4"
       inkscape:connector-curvature="0"
       style="fill:#ce3b4d;fill-opacity:1" />
    <path
       d="m 3984,5772 c -5,-4 -20,-24 -33,-45 -39,-64 -95,-81 -166,-52 -48,21 -70,13 -97,-37 -37,-65 -99,-84 -174,-53 -43,18 -64,9 -92,-39 -11,-19 -32,-42 -46,-51 -26,-17 -32,-17 -151,0 -39,6 -41,5 -70,-42 -39,-62 -85,-80 -148,-58 -68,24 -81,20 -115,-34 -41,-66 -87,-82 -160,-56 -48,17 -82,16 -82,-4 0,-16 91,-41 149,-41 84,0 361,54 445,86 15,6 15,2 -1,-37 -16,-39 -18,-78 -18,-339 v -295 l 26,-55 c 37,-78 81,-125 152,-160 75,-37 165,-42 248,-15 75,25 159,110 188,189 21,57 22,72 19,350 -3,274 -4,294 -25,338 -26,57 -93,131 -133,148 -30,13 -40,30 -17,30 6,0 84,36 173,80 143,71 244,137 244,159 0,8 -77,41 -95,41 -6,0 -15,-4 -21,-8 z m -348,-358 c 80,-33 132,-106 141,-200 l 6,-54 h -80 c -66,0 -83,-3 -97,-19 -14,-15 -15,-24 -6,-40 10,-19 20,-21 95,-21 h 85 v -35 -35 h -79 c -59,0 -84,-4 -95,-16 -19,-19 -19,-24 -2,-46 11,-15 29,-18 95,-18 h 81 v -35 -35 h -85 c -73,0 -86,-3 -95,-19 -13,-25 -13,-27 6,-45 11,-12 36,-16 95,-16 h 79 v -42 c 0,-89 -73,-191 -155,-218 -20,-7 -67,-10 -104,-8 -58,3 -74,8 -116,39 -57,41 -91,100 -101,176 l -6,52 87,3 c 71,2 90,6 99,21 8,12 8,22 0,35 -9,14 -28,18 -98,20 l -86,3 v 34 34 l 86,3 c 70,2 89,6 98,21 8,12 8,22 0,35 -9,14 -28,18 -98,20 l -87,3 3,32 3,32 84,5 c 65,4 86,9 95,23 8,12 8,22 0,35 -9,14 -28,18 -99,20 l -87,3 6,49 c 9,67 30,113 69,152 59,60 185,84 263,52 z"
       id="path6"
       inkscape:connector-curvature="0"
       style="fill:#ce3b4d;fill-opacity:1" />
    <path
       d="m 3095,4776 c -15,-11 -17,-24 -13,-85 14,-186 169,-359 363,-402 l 55,-12 v -89 -89 l -117,1 c -65,1 -123,1 -130,1 -7,-1 -18,-11 -24,-23 -10,-18 -8,-24 11,-40 20,-16 47,-18 302,-18 286,0 318,4 318,39 0,36 -25,43 -138,42 -59,-1 -116,1 -125,5 -14,5 -17,20 -17,88 v 83 l 58,13 c 89,19 161,59 230,127 75,74 119,160 134,263 10,66 9,73 -9,92 -29,29 -63,10 -63,-36 0,-39 -25,-127 -50,-177 -30,-58 -108,-129 -179,-163 -60,-28 -75,-31 -161,-31 -81,1 -103,5 -153,27 -122,57 -206,171 -229,314 -12,71 -32,93 -63,70 z"
       id="path8"
       inkscape:connector-curvature="0"
       style="fill:#ce3b4d;fill-opacity:1" />
  </g>
</svg>
