<?xml version="1.0" encoding="UTF-8" standalone="no"?>
<svg
   xmlns:dc="http://purl.org/dc/elements/1.1/"
   xmlns:cc="http://creativecommons.org/ns#"
   xmlns:rdf="http://www.w3.org/1999/02/22-rdf-syntax-ns#"
   xmlns:svg="http://www.w3.org/2000/svg"
   xmlns="http://www.w3.org/2000/svg"
   xmlns:sodipodi="http://sodipodi.sourceforge.net/DTD/sodipodi-0.dtd"
   xmlns:inkscape="http://www.inkscape.org/namespaces/inkscape"
   width="48"
   height="53.185883"
   viewBox="0 0 48 53.185883"
   version="1.1"
   id="svg4"
   sodipodi:docname="rpicon.svg"
   inkscape:version="0.92.3 (2405546, 2018-03-11)">
  <metadata
     id="metadata10">
    <rdf:RDF>
      <cc:Work
         rdf:about="">
        <dc:format>image/svg+xml</dc:format>
        <dc:type
           rdf:resource="http://purl.org/dc/dcmitype/StillImage" />
        <dc:title />
      </cc:Work>
    </rdf:RDF>
  </metadata>
  <defs
     id="defs8" />
  <sodipodi:namedview
     pagecolor="#ffffff"
     bordercolor="#666666"
     borderopacity="1"
     objecttolerance="10"
     gridtolerance="10"
     guidetolerance="10"
     inkscape:pageopacity="0"
     inkscape:pageshadow="2"
     inkscape:window-width="1920"
     inkscape:window-height="1017"
     id="namedview6"
     showgrid="false"
     inkscape:showpageshadow="false"
     showborder="false"
     fit-margin-top="0"
     fit-margin-left="0"
     fit-margin-right="0"
     fit-margin-bottom="0"
     inkscape:zoom="2.95"
     inkscape:cx="-48.848049"
     inkscape:cy="23.42393"
     inkscape:window-x="-8"
     inkscape:window-y="-8"
     inkscape:window-maximized="1"
     inkscape:current-layer="svg4" />
  <g
     id="g4536"
     transform="matrix(0.7603498,0,0,0.7603498,-19.073182,9.7943361)"
     style="stroke-width:1.31518412;fill:#f7f0f5;fill-opacity:1">
    <g
       id="g4530"
       style="stroke-width:1.31518412;fill:#f7f0f5;fill-opacity:1">
      <g
         id="g4525"
         style="stroke-width:1.31518412;fill:#f7f0f5;fill-opacity:1">
        <g
           id="g4521"
           style="stroke-width:1.31518412;fill:#f7f0f5;fill-opacity:1">
          <path
             d="m 61.874822,-1.0214869 c 8.779267,-0.825372 17.558704,-5.7628871 26.338763,-1.560187 V 55.394355 c -12.111298,-5.797245 -24.221413,5.797245 -36.331529,0 l -4.73e-4,-9.18543 c -1.4e-5,-0.337432 -2.8e-5,-0.674864 -4.1e-5,-1.012296 -8.931961,0.790078 -17.864379,5.794041 -26.796796,1.571564 v -57.976028 c 12.263752,5.797244 24.527505,-5.797245 36.790076,0 z m 6.68875,31.4736049 c 1.056547,-0.248266 2.113095,-0.50608 3.169643,-0.753152 4.678828,-1.10526 6.542559,-4.089224 6.540195,-8.787177 V 13.34207 c 0.0012,-4.6191759 -1.205457,-7.5518159 -6.892378,-6.2221609 -3.169643,0.747184 -6.338104,1.580307 -9.508929,1.87751 V 46.800659 c 2.230096,-0.208878 4.460191,-0.683925 6.691469,-1.206715 z m 0,-6.148159 V 13.633305 c 0.418364,-0.09787 0.837911,-0.198135 1.256275,-0.298397 1.565913,-0.373592 1.708913,0.457144 1.712458,1.828573 -0.0012,2.100711 -0.0012,4.200228 0,6.300938 -0.0012,1.168521 -0.147727,2.167552 -1.712458,2.541144 -0.418364,0.100261 -0.837911,0.200522 -1.256275,0.298396 z M 41.90099,36.984134 V 20.826567 c 0.469182,-0.108616 0.939547,-0.21962 1.40873,-0.330623 1.360275,-0.321074 1.758549,0.04416 1.760912,1.822605 v 11.026343 c 0.0024,1.676988 0.254092,2.43014 0.603911,2.758376 2.231277,-0.504886 4.460191,-0.940545 6.690286,-1.099292 v -0.254234 c -0.249364,-0.439239 -0.554274,-1.123164 -0.55191,-2.750021 V 19.144805 c 0.0024,-2.807313 -1.812913,-3.877959 -2.868279,-4.083256 1.253912,-0.793734 2.969916,-2.33704 2.967552,-5.4773639 v -6.046704 c 0,-4.05341603 -2.061095,-6.194709 -6.137194,-5.260131 -3.520644,0.79373397 -7.043651,1.76531297 -10.565477,2.09354897 V 38.174139 c 2.231278,-0.207684 4.461373,-0.674376 6.691469,-1.190005 z m 0,-22.40718 V 5.0246891 c 0.503455,-0.115778 1.006911,-0.235137 1.509185,-0.354495 1.357911,-0.321075 1.659276,0.119358 1.660457,1.745022 v 5.1324179 c 0,1.778442 -0.49991,2.401494 -1.861367,2.722568 -0.436092,0.102648 -0.872184,0.20649 -1.308275,0.306752 z"
             id="path2"
             inkscape:connector-curvature="0"
             style="fill-rule:evenodd;stroke-width:1.31518412;fill:#f7f0f5;fill-opacity:1" />
        </g>
      </g>
    </g>
  </g>
</svg>
